<svg height="512pt" viewBox="-83 0 512 512" width="512pt" xmlns="http://www.w3.org/2000/svg"><path d="m10.371094 99.925781v-28.414062c0-5.605469 4.546875-10.148438 10.152344-10.148438h209.703124c5.605469 0 10.152344 4.542969 10.152344 10.148438v420.1875c0 5.605469-4.546875 10.152343-10.152344 10.152343h-209.703124c-5.605469 0-10.152344-4.546874-10.152344-10.152343v-311.085938" fill="#79b2ff"/><path d="m170.429688 10.148438h-90.109376c-5.605468 0-10.148437 4.546874-10.148437 10.152343v41.0625h110.40625v-41.0625c0-5.605469-4.542969-10.152343-10.148437-10.152343zm0 0" fill="#d7d6d8"/><g fill="#f9f9f9"><path d="m196.085938 146.636719-141.6875 77.152343v65.128907l141.6875-77.148438zm0 0"/><path d="m196.085938 102.921875h-39.328126l-102.359374 55.734375v65.132812l141.6875-77.152343zm0 0"/><path d="m54.398438 102.921875v55.734375l102.359374-55.734375zm0 0"/></g><path d="m173.5 419.460938-77.582031 42.242187h52.4375" fill="#ff6977"/><path d="m196.085938 378.246094v-36.214844l-141.6875 77.148438v42.523437h41.519531l76.289062-41.539063" fill="#ff6977"/><path d="m196.085938 276.898438-141.6875 77.152343v65.128907l141.6875-77.148438zm0 0" fill="#f9f9f9"/><path d="m196.085938 211.769531-141.6875 77.148438v65.132812l141.6875-77.152343zm0 0" fill="#f9f9f9"/><path d="m219.972656 337-73.226562 129.929688c-8.800782 15.613281 2.480468 34.921874 20.402344 34.921874h146.457031c17.921875 0 29.203125-19.308593 20.402343-34.921874l-73.226562-129.929688c-8.957031-15.894531-31.847656-15.894531-40.808594 0zm0 0" fill="#ff6977"/><path d="m10.148438 150.558594c5.425781 0 10.0625-4.546875 10.132812-9.976563.074219-5.632812-4.539062-10.28125-10.15625-10.289062-5.597656-.007813-10.234375 4.757812-10.1171875 10.355469.1093755 5.386718 4.7578125 9.910156 10.1406255 9.910156zm0 0"/><path d="m313.382812 512c12.0625 0 22.898438-6.21875 28.984376-16.636719 6.085937-10.414062 6.183593-22.90625.261718-33.417969l-73.226562-129.925781c-4.300782-7.628906-11.101563-13.050781-19.097656-15.542969v-244.964843c0-11.191407-9.105469-20.300781-20.300782-20.300781h-39.496094v-30.910157c0-11.195312-9.109374-20.300781-20.300781-20.300781h-90.109375c-11.191406 0-20.296875 9.105469-20.296875 20.300781v30.910157h-39.5c-11.195312 0-20.300781 9.109374-20.300781 20.300781v28.410156c0 13.035156 20.300781 13.050781 20.300781 0v-28.410156h209.703125v244.964843c-7.996094 2.492188-14.792968 7.910157-19.09375 15.542969l-4.898437 8.6875v-237.785156c0-5.605469-4.542969-10.152344-10.148438-10.152344h-141.6875c-5.605469 0-10.152343 4.546875-10.152343 10.152344v358.78125c0 5.605469 4.546874 10.152344 10.152343 10.152344h79.804688c-1.347657 6.625-.644531 13.507812 2.113281 19.84375h-115.792969v-311.085938c0-13.03125-20.300781-13.050781-20.300781 0v311.085938c0 11.195312 9.105469 20.300781 20.300781 20.300781zm-233.285156-460.789062v-30.910157h90.109375v30.910157zm-15.773437 285.757812v-42.019531l121.386719-66.097657v42.019532zm121.386719-173.246094v42.015625l-121.386719 66.097657v-42.015626zm-121.386719 238.375v-42.015625l121.386719-66.097656v42.015625zm0-195.390625v-42.019531l94.792969-51.617188h26.59375v27.539063zm52.347656-93.636719-27.089844 14.75-25.257812 13.753907v-28.503907zm-23.5625 338.484376h-28.785156v-26.34375l121.390625-66.097657v17.609375l-19.847656 35.214844zm50.429687 0h-7.980468l11.511718-6.269532zm181.300782 33.570312c-2.441406 4.179688-6.617188 6.578125-11.457032 6.578125h-146.457031c-9.921875 0-16.511719-11-11.558593-19.789063l73.226562-129.929687c4.992188-8.855469 18.132812-8.855469 23.121094 0l73.226562 129.929687c2.378906 4.214844 2.34375 9.03125-.101562 13.210938-2.441406 4.179688 2.445312-4.179688 0 0zm0 0"/><path d="m240.15625 372.050781c-5.605469 0-10.152344 4.542969-10.152344 10.148438v45.453125c0 13.03125 20.300782 13.050781 20.300782 0v-45.453125c0-5.605469-4.542969-10.148438-10.148438-10.148438zm0 0"/><path d="m240.148438 453.363281c-5.425782 0-10.058594 4.546875-10.128907 9.976563-.074219 5.632812 4.539063 10.285156 10.15625 10.289062 5.601563.007813 10.230469-4.757812 10.117188-10.355468-.109375-5.390626-4.757813-9.910157-10.144531-9.910157zm0 0"/></svg>