<svg height="480pt" viewBox="0 0 480 480" width="480pt" xmlns="http://www.w3.org/2000/svg"><g fill="#80d6fb"><path d="m39.152344 60.425781 8.847656-4.425781-8.847656-4.425781c-4.648438-2.316407-8.410156-6.085938-10.738282-10.734375l-4.414062-8.839844-4.425781 8.847656c-2.316407 4.648438-6.085938 8.410156-10.734375 10.738282l-8.839844 4.414062 8.847656 4.425781c4.648438 2.316407 8.410156 6.085938 10.738282 10.734375l4.414062 8.839844 4.425781-8.847656c2.316407-4.640625 6.085938-8.410156 10.726563-10.726563zm0 0"/><path d="m250.105469 18.945312 5.894531-2.945312-5.894531-2.953125c-3.097657-1.550781-5.609375-4.054687-7.152344-7.152344l-2.953125-5.894531-2.953125 5.894531c-1.550781 3.097657-4.054687 5.609375-7.152344 7.152344l-5.894531 2.953125 5.894531 2.953125c3.097657 1.550781 5.609375 4.054687 7.152344 7.152344l2.953125 5.894531 2.953125-5.894531c1.542969-3.097657 4.054687-5.609375 7.152344-7.160157zm0 0"/><path d="m405.046875 137.472656 2.953125-1.472656-2.953125-1.472656c-1.550781-.773438-2.800781-2.03125-3.574219-3.574219l-1.472656-2.953125-1.472656 2.953125c-.773438 1.550781-2.03125 2.800781-3.574219 3.574219l-2.953125 1.472656 2.953125 1.472656c1.550781.773438 2.800781 2.03125 3.574219 3.574219l1.472656 2.953125 1.472656-2.953125c.773438-1.542969 2.03125-2.800781 3.574219-3.574219zm0 0"/></g><path d="m48 224h128v128h-128zm0 0" fill="#ffd3b3"/><path d="m128 264-16-8-16 8v-40h32zm0 0" fill="#6e83b7"/><path d="m48 128h128v96h-128zm0 0" fill="#ffd3b3"/><path d="m128 168-16-8-16 8v-40h32zm0 0" fill="#6e83b7"/><path d="m32 352h160v16h-160zm0 0" fill="#6e83b7"/><path d="m208 80h-16c-8.839844 0-16 7.160156-16 16v272h16v-272h16zm0 0" fill="#6e83b7"/><path d="m200 80h24c4.414062 0 8 3.585938 8 8s-3.585938 8-8 8h-24zm0 0" fill="#ffe352"/><path d="m40 384 8 16h16v-32h-24zm0 0" fill="#80d6fb"/><path d="m176 352v-20.625c-9.207031 4.03125-16.59375 11.417969-20.625 20.625zm0 0" fill="#fcb98b"/><path d="m176 331.375v20.625h-20.625c-2.144531 4.902344-3.375 10.304688-3.375 16h40v-40c-5.695312 0-11.097656 1.230469-16 3.375zm0 0" fill="#466089"/><path d="m224 368c0 17.671875-14.328125 32-32 32s-32-14.328125-32-32 14.328125-32 32-32 32 14.328125 32 32zm0 0" fill="#6e83b7"/><path d="m208 368c0 8.835938-7.164062 16-16 16s-16-7.164062-16-16 7.164062-16 16-16 16 7.164062 16 16zm0 0" fill="#d3d3d3"/><path d="m48 216h128v8h-128zm0 0" fill="#fcb98b"/><path d="m224 272h128v128h-128zm0 0" fill="#ffd3b3"/><path d="m304 312-16-8-16 8v-40h32zm0 0" fill="#6e83b7"/><path d="m224 144h128v128h-128zm0 0" fill="#ffd3b3"/><path d="m304 184-16-8-16 8v-40h32zm0 0" fill="#6e83b7"/><path d="m352 272h128v128h-128zm0 0" fill="#ffd3b3"/><path d="m466.480469 400h-132.960938l2.800781-10.078125 4.878907-19.761719c1.601562-6.320312 5.519531-11.441406 10.800781-14.640625 3.601562-2.238281 7.921875-3.519531 12.480469-3.519531h3.519531c4.398438 0 8-3.601562 8-8v-72h48v72c0 4.398438 3.601562 8 8 8h3.519531c11.039063 0 20.558594 7.441406 23.28125 18.160156l4.960938 19.917969zm0 0" fill="#fcb98b"/><path d="m432 312-16-8-16 8v-40h32zm0 0" fill="#6e83b7"/><path d="m416 304 8 4v-36h-24v40zm0 0" fill="#466089"/><path d="m224 264h128v8h-128zm0 0" fill="#fcb98b"/><path d="m480 480-24-88h-112l-24 88zm0 0" fill="#ffe352"/><path d="m392 392h16v32h-16zm0 0" fill="#ffb236"/><path d="m424 392h16v24h-16zm0 0" fill="#ffb236"/><path d="m360 392h16v24h-16zm0 0" fill="#ffb236"/><path d="m456 392-4.96875-19.878906c-1.785156-7.121094-8.183594-12.121094-15.527344-12.121094h-3.503906c-8.839844 0-16-7.160156-16-16v-87.144531c0-7.96875-5.449219-15.359375-13.3125-16.640625-10.023438-1.621094-18.6875 6.066406-18.6875 15.785156v88c0 8.839844-7.160156 16-16 16h-3.503906c-7.34375 0-13.742188 5-15.519532 12.121094l-4.976562 19.878906zm-56-144c4.414062 0 8 3.585938 8 8s-3.585938 8-8 8-8-3.585938-8-8 3.585938-8 8-8zm0 0" fill="#6e83b7"/></svg>