<svg xmlns="http://www.w3.org/2000/svg" viewBox="0 0 512.001 512.001"><circle cx="256" cy="256" r="256" fill="#5c5e70"/><g fill="#34abe0"><path d="M469.869 206.196a7.029 7.029 0 01-7.029-7.029v-11.259a7.029 7.029 0 0114.058 0v11.259a7.03 7.03 0 01-7.029 7.029zM469.869 263.776a7.029 7.029 0 01-7.029-7.029V245.49a7.029 7.029 0 0114.058 0v11.258a7.03 7.03 0 01-7.029 7.028zM504.288 229.358h-11.259a7.029 7.029 0 010-14.058h11.259a7.029 7.029 0 010 14.058zM446.707 229.358H435.45a7.029 7.029 0 010-14.058h11.258a7.029 7.029 0 11-.001 14.058zM391.867 22.724a7.029 7.029 0 01-7.029-7.029V7.029a7.029 7.029 0 0114.058 0v8.666a7.028 7.028 0 01-7.029 7.029zM391.867 67.048a7.029 7.029 0 01-7.029-7.029v-8.666a7.029 7.029 0 0114.058 0v8.666a7.029 7.029 0 01-7.029 7.029zM418.362 40.553h-8.666a7.029 7.029 0 010-14.058h8.666a7.029 7.029 0 010 14.058zM374.038 40.553h-8.666a7.029 7.029 0 010-14.058h8.666a7.029 7.029 0 010 14.058z"/></g><path d="M305.852 124.759a7.03 7.03 0 01-5.95-10.76c10.311-16.463 18.895-32.581 25.513-47.906a7.029 7.029 0 0112.904 5.573c-6.899 15.976-15.818 32.729-26.506 49.795a7.016 7.016 0 01-5.961 3.298z" fill="#ff5a5a"/><path d="M215.974 234.747a7.029 7.029 0 01-4.81-12.155c.323-.303 32.638-30.776 64.889-73.917a7.03 7.03 0 1111.26 8.418c-33.031 44.182-65.179 74.484-66.532 75.752a7.013 7.013 0 01-4.807 1.902z" fill="#34abe0"/><path d="M278.149 244.885a7.03 7.03 0 01-4.736-12.224c32.72-29.825 97.504-82.769 163.752-102.267a7.03 7.03 0 013.969 13.485C377.59 162.581 314.71 214.04 282.883 243.05a7.006 7.006 0 01-4.734 1.835z" fill="#f9f9f9"/><g fill="#ff5a5a"><path d="M290.023 308.794a7.028 7.028 0 01-4.379-12.53c2.334-1.855 58.024-45.266 133.17-30.816a7.028 7.028 0 015.575 8.229c-.732 3.813-4.415 6.314-8.229 5.575-68.879-13.246-121.248 27.602-121.769 28.017a7.008 7.008 0 01-4.368 1.525zM194.779 177.404a7.027 7.027 0 01-6.274-10.184c11.361-22.624 23.205-58.429 15.111-100.516a7.027 7.027 0 015.575-8.229 7.028 7.028 0 018.229 5.575c8.84 45.966-4.013 84.906-16.353 109.479a7.03 7.03 0 01-6.288 3.875z"/></g><path d="M286.378 370.562l-115.545 57.584-67.271 33.541c-34.105-25.318-61.701-58.922-79.799-97.834l11.128-22.329 52.987-106.318 21.002-42.141 177.498 177.497z" fill="#f9f9f9"/><path d="M286.378 370.562l-182.826 91.115a257.41 257.41 0 01-25.945-22.079l167.518-123.914 41.253 54.878z" fill="#e8e8e8"/><g fill="#ff5a5a"><path d="M76.667 438.689c-21.828-21.431-39.842-46.749-52.903-74.825v-.01l11.139-22.329 41.764 97.164zM286.379 370.559l-115.54 57.579-18.765-43.628-64.189-149.299 21.003-42.143 128.413 128.413z"/></g><path fill="#ea4444" d="M286.379 370.559l-115.54 57.579-18.765-43.628 85.227-63.029 7.828-5.798z"/><path d="M270.098 373.123L106.316 209.341c-7.938-7.938-7.938-20.807 0-28.745 7.938-7.938 20.807-7.938 28.745 0l163.781 163.781c7.938 7.938 7.938 20.807 0 28.745-7.937 7.938-20.807 7.938-28.744.001z" fill="#f9f9f9"/><path d="M298.843 344.378l-44.069-44.069c7.938 7.938 7.938 20.807 0 28.745s-20.807 7.938-28.745 0l44.069 44.069c7.938 7.938 20.807 7.938 28.745 0 7.938-7.938 7.937-20.808 0-28.745z" fill="#e8e8e8"/><circle cx="163.391" cy="128.011" r="7.029" fill="#f9f9f9"/><circle cx="257.317" cy="101.178" r="7.029" fill="#ff5a5a"/><circle cx="372.328" cy="122.264" r="7.029" fill="#34abe0"/><g fill="#f9f9f9"><circle cx="372.328" cy="323.532" r="7.029"/><path d="M254.9 10.029l8.735 7.769a3.005 3.005 0 002.714.673L277.7 15.68c2.418-.595 4.468 1.841 3.469 4.122l-4.69 10.708a3.004 3.004 0 00.199 2.789l6.163 9.934c1.312 2.116-.371 4.818-2.848 4.574l-11.633-1.151a3.003 3.003 0 00-2.59 1.051l-7.543 8.931c-1.607 1.902-4.697 1.136-5.23-1.296l-2.5-11.42a3.005 3.005 0 00-1.8-2.139l-10.824-4.415c-2.305-.94-2.532-4.116-.383-5.374l10.088-5.907a3.004 3.004 0 001.479-2.373l.854-11.659c.178-2.483 3.128-3.681 4.989-2.026z"/></g><path d="M485.989 69.64l6.115 12.887a3.662 3.662 0 002.728 2.047l14.082 2.268c2.999.483 4.143 4.196 1.935 6.283l-10.366 9.797a3.666 3.666 0 00-1.104 3.228l2.194 14.094c.467 3.002-2.71 5.236-5.377 3.781l-12.521-6.832a3.662 3.662 0 00-3.411-.052l-12.726 6.442c-2.71 1.372-5.818-.959-5.258-3.946l2.628-14.019a3.665 3.665 0 00-1.004-3.26l-10.059-10.113c-2.142-2.154-.885-5.829 2.127-6.22l14.145-1.833a3.668 3.668 0 002.791-1.962l6.51-12.691c1.384-2.704 5.269-2.643 6.571.101z" fill="#ff5a5a"/></svg>